<svg xmlns="http://www.w3.org/2000/svg" viewBox="0 0 16 16" width="16" height="16"><path d="M.96 0C.43072 0 0 .43072 0 .96v14.08c0 .52928.43072.96.96.96h14.08c.52928 0 .96-.43072.96-.96V3.84c0-.0848-.02984-.17016-.09-.23L12.39.09c-.05984-.06016-.14488-.09-.23-.09zm2.56 1.2666664h.64l7.733334-.033336.52.4375864v3.76908c0 .37088-.26912.64-.64.64L4.16 6.08c-.37088 0-.64-.26912-.64-.64zm6.4.28c-.17696 0-.32.14336-.32.32V4.48c0 .17664.14304.32.32.32h.96c.17696 0 .32-.14336.32-.32V1.8666664c0-.17664-.14304-.32-.32-.32zM3.46 8.64h9.08c.32 0 .58.26.58.58v5.513334H2.88V9.22c0-.32.26-.58.58-.58z"/></svg>